<?xml version="1.0" encoding="utf-8"?>
<!-- Uploaded to: SVG Repo, www.svgrepo.com, Generator: SVG Repo Mixer Tools -->
<svg width="800px" height="800px" viewBox="0 0 1024 1024" class="icon"  version="1.1" xmlns="http://www.w3.org/2000/svg"><path d="M512.09216 505.6768m-490.40384 0a490.40384 490.40384 0 1 0 980.80768 0 490.40384 490.40384 0 1 0-980.80768 0Z" fill="#30C03F" /><path d="M501.12 289.3056s-31.83104-200.54528-9.5488-222.82752 39.25504-14.08512 47.74912-6.36416c17.5104 15.91808-19.0976 184.63232-19.0976 206.91456s-9.55392 44.56448-19.10272 22.27712z" fill="#5A4530" /><path d="M512.57344 222.592C248.2688 89.60512 75.15136 332.75904 75.15136 551.25504c0 220.03712 239.60576 484.7872 426.28096 342.69696 3.70176-2.82112 7.424-5.48352 11.14624-8.17664V222.592z" fill="#E2FFED" /><path d="M511.61088 222.592c264.30464-132.98688 437.42208 110.16704 437.42208 328.66304 0 220.03712-239.60576 484.7872-426.28096 342.69696-3.70176-2.82112-7.424-5.48352-11.14624-8.17664V222.592z" fill="#FFFFFF" /><path d="M492.43136 513.09568c5.02272-2.00704 0-51.56864-14.73536-55.58784-14.73536-4.0192-23.74144 7.17824-24.448 13.39392-1.67424 14.73536 30.46912 45.68064 39.18336 42.19392zM535.5264 513.86368c4.81792 2.46272 38.8608-33.90464 32.2048-47.64672-6.656-13.7472-21.0176-13.16864-26.1632-9.61536-12.20608 8.42752-14.39232 52.98688-6.0416 57.26208zM565.4272 547.17952c1.88416 5.07392 51.55328 1.29536 55.94112-13.33248 4.38784-14.62784-6.5792-23.9104-12.7744-24.77568-14.68928-2.04288-46.43328 29.312-43.16672 38.10816zM569.00096 583.77728c-3.31264 4.2752 26.11712 44.4672 40.8576 40.4736 14.74048-3.99872 16.83456-18.21184 14.29504-23.93088-6.016-13.55264-49.40288-23.9616-55.15264-16.54272zM537.49248 618.0352c-5.2224 1.41312-5.98528 51.22048 8.18176 56.92416 14.16704 5.70368 24.41216-4.3776 25.83552-10.46528 3.37408-14.44352-24.96-48.91136-34.01728-46.45888zM493.7216 618.9824c-4.70528-2.66752-40.2688 32.22016-34.19648 46.2336s20.43904 14.04928 25.73312 10.72128c12.54912-7.90016 16.62976-52.33152 8.46336-56.95488zM459.65312 588.75392c-2.09408-4.98688-51.56352 0.88576-55.32672 15.68768-3.7632 14.80192 7.58784 23.61344 13.81376 24.21248 14.75584 1.41824 45.14304-31.24736 41.51296-39.90016zM459.2896 542.08c1.80224-5.09952-38.75328-34.02752-51.49696-25.60512-12.74368 8.4224-10.2656 22.57408-6.06208 27.20768 9.97376 10.9824 54.43072 7.2448 57.55904-1.60256z" fill="#365C3C" /></svg>